<svg xmlns:xlink="http://www.w3.org/1999/xlink" xmlns="http://www.w3.org/2000/svg" viewBox="6.656 14.976 114.688 114.688" width="114.688" height="114.688">
    <linearGradient y2="-70" y1="204" x2="-493.708313" x1="-841.546875" gradientUnits="userSpaceOnUse" gradientTransform="matrix(0.259459 0 0 0.25 237.09729 56)" id="a">
        <stop stop-color="#e01b24" offset="0"/>
        <stop stop-color="#e66100" offset="0.394161"/>
        <stop stop-color="#df97e0" offset="1"/>
    </linearGradient>
    <path fill="#f6f5f4" d="m 15.5 28 h 97 c 4.140625 0 7.5 3.359375 7.5 7.5 v 73 c 0 4.140625 -3.359375 7.5 -7.5 7.5 h -97 c -4.140625 0 -7.5 -3.359375 -7.5 -7.5 v -73 c 0 -4.140625 3.359375 -7.5 7.5 -7.5 z m 0 0"/>
    <path fill="url(#a)" d="m 19.777344 36 h 88.445312 c 2.085938 0 3.777344 1.691406 3.777344 3.777344 v 64.445312 c 0 2.085938 -1.691406 3.777344 -3.777344 3.777344 h -88.445312 c -2.085938 0 -3.777344 -1.691406 -3.777344 -3.777344 v -64.445312 c 0 -2.085938 1.691406 -3.777344 3.777344 -3.777344 z m 0 0"/>
    <path fill="#ffffff" d="m 56 60 v 22 h 2.199219 c 0.382812 0 0.757812 -0.097656 1.09375 -0.289062 l 15.394531 -8.796876 c 0.6875 -0.394531 1.109375 -1.125 1.109375 -1.914062 s -0.421875 -1.519531 -1.109375 -1.910156 l -15.394531 -8.800782 c -0.320313 -0.183593 -0.683594 -0.28125 -1.050781 -0.289062 c -0.011719 0 -0.027344 0 -0.042969 0 z m 0 0"/>
</svg>